<svg width="1200" height="675" viewBox="0 0 1200 675" fill="none" xmlns="http://www.w3.org/2000/svg">
  <rect width="1200" height="675" fill="#FFFFFF"/>
  <style>
    .ink{stroke:#0B2F7A;stroke-width:4;stroke-linecap:round;stroke-linejoin:round}
    .thin{stroke:#0B2F7A;stroke-width:2.5;stroke-linecap:round;stroke-linejoin:round}
    .blue{stroke:#48B0E0}
    .orange{stroke:#F07A2A}
    .pink{stroke:#F4A7B8}
    .label{font-family:"Kaiti SC","STKaiti","KaiTi",serif;font-size:28px;fill:#0B2F7A}
    .note{font-family:"Kaiti SC","STKaiti","KaiTi",serif;font-size:23px;fill:#F07A2A}
    .tiny{font-family:"Kaiti SC","STKaiti","KaiTi",serif;font-size:19px;fill:#0B2F7A}
  </style>

  <!-- moon and quiet night desk -->
  <path d="M95 96c-18 13-23 39-8 58 10 13 27 20 43 17-10 13-31 17-49 8-25-13-34-43-21-68 7-13 20-21 35-25z" fill="#F8DFA0"/>
  <path d="M68 173c19-12 46-9 60 8 17-10 40-5 51 11" class="thin" stroke="#C8D8E0"/>
  <path d="M74 195h117" class="thin" stroke="#C8D8E0"/>

  <path d="M90 520h282" class="ink"/>
  <path d="M122 388h202c13 0 24 11 24 24v98H98v-98c0-13 11-24 24-24z" fill="#EAF7FD" stroke="#0B2F7A" stroke-width="4"/>
  <path d="M124 413h199v68H124z" fill="#60B8E8" fill-opacity=".22" stroke="#0B2F7A" stroke-width="2.5"/>
  <path d="M151 447c30-27 68-25 93 1 19 18 36 22 56 7" class="thin blue"/>
  <path d="M98 510h250l32 35H72l26-35z" fill="#F8F8F0" stroke="#0B2F7A" stroke-width="4"/>
  <path d="M118 552h245" class="thin"/>
  <path d="M128 456h53" class="thin"/>
  <text x="124" y="365" class="label" fill="#F4A7B8">怕错过</text>

  <!-- wave ribbon from laptop -->
  <path d="M333 404c71-83 181-111 310-81 79 19 144 7 209-39-35 83-100 139-197 167-96 27-194 18-303 78 35-48 18-79-19-125z" fill="#60B8E8" fill-opacity=".35"/>
  <path d="M340 399c86-73 177-86 283-62 82 18 149 1 220-48" class="ink blue"/>
  <path d="M344 526c91-63 197-59 315-76 90-13 153-55 198-126" class="thin blue"/>
  <path d="M405 447c50 27 103 25 159-6 48-26 96-32 143-15" class="thin blue"/>
  <text x="418" y="293" class="label">直播潮</text>
  <path d="M508 288c-5-28 15-49 45-48" class="thin blue"/>

  <!-- floating livestream cards -->
  <g transform="rotate(-9 536 337)">
    <rect x="455" y="285" width="164" height="70" rx="12" fill="#FFFFFF" stroke="#48B0E0" stroke-width="4"/>
    <path d="M486 325l20-12v24l-20-12z" fill="#F07A2A"/>
    <path d="M530 311h58M530 333h36" class="thin blue"/>
    <rect x="470" y="294" width="56" height="21" rx="6" fill="#F07A2A"/>
  </g>
  <g transform="rotate(6 612 405)">
    <rect x="530" y="370" width="170" height="72" rx="12" fill="#FFFFFF" stroke="#48B0E0" stroke-width="4"/>
    <path d="M562 411l20-12v24l-20-12z" fill="#0B2F7A"/>
    <path d="M607 393h62M607 417h41" class="thin blue"/>
    <text x="545" y="359" class="note">无回放</text>
  </g>
  <g transform="rotate(-4 440 447)">
    <rect x="386" y="420" width="130" height="58" rx="11" fill="#FFFFFF" stroke="#48B0E0" stroke-width="3"/>
    <path d="M415 449l15-9v18l-15-9z" fill="#F07A2A"/>
    <path d="M449 438h38M449 459h28" class="thin blue"/>
  </g>
  <g transform="rotate(12 707 334)">
    <rect x="645" y="298" width="142" height="64" rx="12" fill="#FFFFFF" stroke="#48B0E0" stroke-width="3.5"/>
    <path d="M675 331l17-10v20l-17-10z" fill="#F07A2A"/>
    <path d="M715 317h42M715 338h27" class="thin blue"/>
  </g>

  <!-- orange surfboard as brake -->
  <path d="M695 526c74-128 201-195 382-202-79 115-202 177-382 202z" fill="#F07A2A" fill-opacity=".9" stroke="#0B2F7A" stroke-width="4"/>
  <path d="M739 503c74-80 160-126 267-150" class="thin" stroke="#FFFFFF"/>
  <path d="M820 470c-4 13-2 24 6 34" class="thin" stroke="#FFFFFF"/>

  <!-- Yaya simplified hand-drawn character -->
  <path d="M858 203c41-50 116-31 128 28 7 36-8 70-35 93-31 27-77 24-104-8-30-35-20-76 11-113z" fill="#48B0E0" stroke="#0B2F7A" stroke-width="4"/>
  <path d="M886 212c-28 28-29 63-3 91 22 24 59 27 84 6 25-21 30-61 13-83-21-27-61-30-94-14z" fill="#F0DCC8" stroke="#0B2F7A" stroke-width="3"/>
  <path d="M852 239c38-11 64-29 82-58M903 192c-6 32-27 54-61 66M948 187c-2 34-15 60-39 78" class="thin blue"/>
  <path d="M973 280c41 18 76 45 105 81 12 15 8 37-8 48-14 10-34 7-44-8-19-27-42-49-70-62" fill="none" stroke="#0B2F7A" stroke-width="4"/>
  <path d="M1032 408c36 12 65 31 87 56" class="thin orange"/>
  <path d="M1031 424c29 3 54 15 76 35" class="thin orange"/>
  <path d="M869 320c-38 25-70 61-95 108" class="ink"/>
  <path d="M775 428c-7 20-23 31-49 32" class="ink"/>
  <path d="M910 316c35 25 54 69 56 132l-132 2c0-68 25-112 76-134z" fill="#0B2F7A" stroke="#0B2F7A" stroke-width="4"/>
  <path d="M872 334c22 18 45 26 70 23" class="thin" stroke="#FFFFFF"/>
  <path d="M864 449c-21 29-31 61-31 96" class="ink"/>
  <path d="M947 449c24 24 42 58 53 100" class="ink"/>
  <path d="M830 546c24 9 45 6 64-9M984 550c23 5 44 0 63-15" class="thin"/>
  <path d="M957 326c-9 42-5 85 11 128" class="thin" stroke="#FFFFFF"/>
  <path d="M901 256c8-7 18-7 27 0M948 257c7-6 15-6 24 0" class="thin"/>
  <circle cx="918" cy="273" r="5" fill="#0B2F7A"/>
  <circle cx="960" cy="273" r="5" fill="#0B2F7A"/>
  <path d="M923 298c18 10 36 8 52-6" class="thin orange"/>
  <circle cx="888" cy="290" r="9" fill="#F4A7B8" fill-opacity=".75"/>
  <circle cx="982" cy="288" r="8" fill="#F4A7B8" fill-opacity=".75"/>
  <path d="M982 318c28 2 53 15 75 39" class="thin orange"/>
  <path d="M989 334c29 1 51 13 66 35" class="thin orange"/>
  <path d="M995 350c22 3 40 13 54 31" class="thin orange"/>

  <!-- personal rhythm shell -->
  <path d="M1045 483c31-31 83-23 99 20 12 33-10 69-46 75-35 6-67-17-70-51-1-17 5-32 17-44z" fill="#F8F8F0" stroke="#F07A2A" stroke-width="4"/>
  <path d="M1070 560c8-29 14-54 19-76M1094 563c0-31 0-57 1-79M1119 553c-8-24-15-46-22-68" class="thin orange"/>
  <text x="1024" y="621" class="note">自己的节奏</text>
  <path d="M1050 606c-28-8-47-23-57-45" class="thin orange"/>

  <!-- small emotion marks -->
  <path d="M118 315c7-12 19-12 26 0 7-12 19-12 25 0 0 20-26 34-26 34s-25-14-25-34z" fill="#F4A7B8" fill-opacity=".75"/>
  <path d="M990 188l17-18M1009 203l26-7M997 223l25 15" class="thin pink"/>
</svg>
